<?xml version="1.0" encoding="utf-8"?>
<!-- Generator: Adobe Illustrator 22.1.0, SVG Export Plug-In . SVG Version: 6.00 Build 0)  -->
<svg version="1.1" id="Icons" xmlns="http://www.w3.org/2000/svg" xmlns:xlink="http://www.w3.org/1999/xlink" x="0px" y="0px"
	 viewBox="0 0 180 180" style="enable-background:new 0 0 180 180;" xml:space="preserve">
<g style="fill:#52b74e;" id="_x31_2">
	<g>
		<g>
			<g>
				<path d="M114,75.2c-5.1,0-9.6-2.1-11.7-5.4l-1.4-2.2l4.5-2.8l1.4,2.2c0.9,1.4,3.5,3,7.2,3c7.6,0,7.6-2.9,7.6-4.2s0-4.2-7.6-4.2
					c-8.1,0-12.9-3.6-12.9-9.5s4.8-9.5,12.9-9.5c4.6,0,8.8,1.7,11.1,4.6l1.7,2.1l-4.1,3.3l-1.7-2.1c-1.3-1.6-4-2.6-7-2.6
					c-3.5,0-7.6,0.7-7.6,4.2s4.1,4.2,7.6,4.2c11.2,0,12.9,6,12.9,9.5C126.9,69.2,125.2,75.2,114,75.2z"/>
			</g>
		</g>
		<g>
			<rect x="111.3" y="36.2" width="5.3" height="11.5"/>
		</g>
		<g>
			<rect x="111.3" y="70.3" width="5.3" height="11.5"/>
		</g>
	</g>
	<g>
		<path d="M114,90.9c-17.7,0-32.1-14.4-32.1-32.1S96.3,26.7,114,26.7s32,14.4,32,32.1S131.6,90.9,114,90.9z M114,32
			c-14.8,0-26.8,12-26.8,26.8s12,26.8,26.8,26.8s26.8-12,26.8-26.8S128.7,32,114,32z"/>
	</g>
	<g>
		<path d="M105.7,142.3c-0.5,0-1,0-1.5,0L46,139.1l0.3-5.3l58.2,3.2c4.7,0.3,9.5-1,13.5-3.7l46.2-30.7c1.6-1,2-3.1,1-4.7l-2.1-3.4
			c-0.9-1.4-2.7-2-4.2-1.4l-36.7,15.1l-2-4.9l36.7-15.1c4-1.6,8.5-0.2,10.7,3.5l2.1,3.4c2.5,4,1.4,9.3-2.6,11.9L121,137.7
			C116.5,140.7,111.1,142.3,105.7,142.3z"/>
	</g>
	<g>
		<path d="M105.9,118.8c-0.1,0-0.3,0-0.4,0l-28.8-1.6L77,112l28.8,1.6c1.1,0.1,2.1-0.8,2.2-2l0.4-7.2c0-0.6-0.2-1.1-0.5-1.5
			c-0.4-0.4-0.9-0.7-1.4-0.7L83.8,101l-0.7-0.9c-4-4.7-10.4-7.1-18.1-6.6c-10.8,0.6-21.5,6.7-27.3,15.4l-1.5,2.2l-4.4-2.9l1.5-2.2
			c6.6-10,18.9-17,31.4-17.7c9-0.5,16.6,2.2,21.7,7.6l20.3,1.1c2,0.1,3.8,1,5.1,2.4c1.3,1.5,2,3.3,1.9,5.3l-0.4,7.2
			C113,115.8,109.8,118.8,105.9,118.8z"/>
	</g>
	<g>
		<path d="M16.7,151.3l-7.7-50l25.7-4l7.7,50L16.7,151.3z M15,105.7l6.1,39.5l15.2-2.4l-6.1-39.5L15,105.7z"/>
	</g>
</g>
</svg>
