<?xml version="1.0" encoding="utf-8"?>
<!-- Generator: Adobe Illustrator 22.1.0, SVG Export Plug-In . SVG Version: 6.00 Build 0)  -->
<svg version="1.1" id="Icons" xmlns="http://www.w3.org/2000/svg" xmlns:xlink="http://www.w3.org/1999/xlink" x="0px" y="0px"
	 viewBox="0 0 180 180" style="enable-background:new 0 0 180 180;" xml:space="preserve">
<g style="fill:#52b74e;" id="_x33_">
	<g>
		<path d="M165.6,147.2H14.4V46h151.2L165.6,147.2L165.6,147.2z M19.7,141.9h140.6V51.3H19.7V141.9z"/>
	</g>
	<g>
		<polygon points="68.1,85.7 42,85.7 15,50.2 19.2,47 44.6,80.4 68.1,80.4 		"/>
	</g>
	<g>
		<polygon points="138,85.7 104.4,85.7 104.4,80.4 135.4,80.4 149.8,61.5 154,64.7 		"/>
	</g>
	<g>
		<path d="M72.9,51.3h-5.3V35.6c0-3.7,3-6.8,6.8-6.8h31.2c3.7,0,6.8,3,6.8,6.8v4.8h-5.3v-4.8c0-0.8-0.7-1.5-1.5-1.5H74.4
			c-0.8,0-1.5,0.7-1.5,1.5V51.3z"/>
	</g>
	<g>
		<path d="M107,93.9H73V72.2h34V93.9z M78.2,88.6h23.5V77.4H78.2V88.6z"/>
	</g>
	<g>
		<polygon points="142.4,127.9 37.6,127.9 37.6,114.4 42.9,114.4 42.9,122.6 137.1,122.6 137.1,106.1 142.4,106.1 		"/>
	</g>
</g>
</svg>
