<?xml version="1.0" encoding="utf-8"?>
<!-- Generator: Adobe Illustrator 22.1.0, SVG Export Plug-In . SVG Version: 6.00 Build 0)  -->
<svg version="1.1" id="Icons" xmlns="http://www.w3.org/2000/svg" xmlns:xlink="http://www.w3.org/1999/xlink" x="0px" y="0px"
	 viewBox="0 0 180 180" style="enable-background:new 0 0 180 180;" xml:space="preserve">
<g style="fill:#52b74e;" id="_x31_9">
	<g>
		<polygon points="52.7,137.7 30.9,137.7 30.9,80.3 52.7,80.3 52.7,85.6 36.2,85.6 36.2,132.4 47.4,132.4 47.4,90.7 52.7,90.7 		"/>
	</g>
	<g>
		<polygon points="84.8,137.7 63,137.7 63,80.3 84.8,80.3 84.8,85.6 68.3,85.6 68.3,132.4 79.6,132.4 79.6,90.7 84.8,90.7 		"/>
	</g>
	<g>
		<polygon points="117,137.7 95.2,137.7 95.2,80.3 117,80.3 117,85.6 100.4,85.6 100.4,132.4 111.7,132.4 111.7,90.7 117,90.7 		"/>
	</g>
	<g>
		<polygon points="149.1,137.7 127.3,137.7 127.3,80.3 149.1,80.3 149.1,85.6 132.6,85.6 132.6,132.4 143.8,132.4 143.8,90.7
			149.1,90.7 		"/>
	</g>
	<g>
		<polygon points="162.4,85.6 17.6,85.6 17.6,67 162.4,67 162.4,72.3 22.9,72.3 22.9,80.3 157.1,80.3 157.1,75.8 162.4,75.8 		"/>
	</g>
	<g>
		<path d="M152.7,151H27.3v-18.6h125.4V151z M32.6,145.7h114.8v-8H32.6V145.7z"/>
	</g>
	<g>
		<polygon points="162.4,164.3 17.6,164.3 17.6,145.7 162.4,145.7 162.4,151 22.9,151 22.9,159 157.1,159 157.1,154.9 162.4,154.9
					"/>
	</g>
	<g>
		<path d="M160.6,72.3H19.4L90,11.7L160.6,72.3z M33.7,67h112.7L90,18.7L33.7,67z"/>
	</g>
	<g>
		<path d="M90,58.8c-6.6,0-12-5.4-12-12s5.4-12,12-12s12,5.4,12,12S96.6,58.8,90,58.8z M90,40.1c-3.7,0-6.7,3-6.7,6.7s3,6.7,6.7,6.7
			s6.7-3,6.7-6.7S93.7,40.1,90,40.1z"/>
	</g>
	<g>
		<rect x="123.2" y="18.1" width="5.3" height="28.9"/>
	</g>
	<g>
		<path d="M144.1,33.9h-20.9V18.1h20.9V33.9z M128.5,28.6h10.3v-5.2h-10.3V28.6z"/>
	</g>
</g>
</svg>
